<svg width="1920" height="1080" viewBox="0 0 1920 1080" xmlns="http://www.w3.org/2000/svg">
  <defs>
    <radialGradient id="glow" cx="62%" cy="42%" r="58%">
      <stop offset="0%" stop-color="#1d4ed8" stop-opacity=".48"/>
      <stop offset="50%" stop-color="#071426" stop-opacity=".85"/>
      <stop offset="100%" stop-color="#020817"/>
    </radialGradient>
    <linearGradient id="shade" x1="0" x2="1">
      <stop offset="0%" stop-color="#020817" stop-opacity=".98"/>
      <stop offset="46%" stop-color="#020817" stop-opacity=".70"/>
      <stop offset="100%" stop-color="#020817" stop-opacity=".38"/>
    </linearGradient>
    <filter id="blur"><feGaussianBlur stdDeviation="6"/></filter>
  </defs>
  <rect width="1920" height="1080" fill="url(#glow)"/>
  <rect width="1920" height="1080" fill="url(#shade)"/>
  <g opacity=".32">
    <ellipse cx="960" cy="955" rx="880" ry="205" fill="none" stroke="#60a5fa" stroke-width="2"/>
    <path d="M0 840 H1920" stroke="#93c5fd" opacity=".22"/>
    <path d="M70 930 C390 770 650 790 960 920 C1250 790 1530 770 1850 930" fill="none" stroke="#2563eb" stroke-width="4" opacity=".70"/>
    <path d="M300 1080 L670 760 M1620 1080 L1250 760" stroke="#60a5fa" stroke-opacity=".15" stroke-width="3"/>
  </g>
  <g opacity=".38" filter="url(#blur)">
    <circle cx="150" cy="135" r="12" fill="#fff"/>
    <circle cx="200" cy="105" r="12" fill="#fff"/>
    <circle cx="250" cy="135" r="12" fill="#fff"/>
    <circle cx="1670" cy="135" r="12" fill="#fff"/>
    <circle cx="1720" cy="105" r="12" fill="#fff"/>
    <circle cx="1770" cy="135" r="12" fill="#fff"/>
  </g>
  <g opacity=".30">
    <rect x="1210" y="280" width="12" height="250" rx="4" fill="#2563eb"/>
    <rect x="1255" y="345" width="12" height="185" rx="4" fill="#3b82f6"/>
    <rect x="1300" y="220" width="12" height="310" rx="4" fill="#1d4ed8"/>
    <rect x="1345" y="385" width="12" height="145" rx="4" fill="#60a5fa"/>
    <rect x="1390" y="265" width="12" height="265" rx="4" fill="#2563eb"/>
    <path d="M1190 640 C1260 535 1298 565 1342 442 S1436 378 1510 250" fill="none" stroke="#60a5fa" stroke-width="5"/>
  </g>
  <g transform="translate(835 215)" opacity=".72">
    <ellipse cx="170" cy="718" rx="185" ry="39" fill="#000" opacity=".45"/>
    <circle cx="170" cy="92" r="62" fill="#061225"/>
    <path d="M104 166 C54 260 40 374 62 520 L278 520 C300 370 286 260 236 166 C196 194 145 194 104 166Z" fill="#071a35"/>
    <path d="M62 308 C14 402 4 488 26 615 L88 615 C82 503 95 417 130 332Z" fill="#061225"/>
    <path d="M278 308 C326 402 336 488 314 615 L252 615 C258 503 245 417 210 332Z" fill="#061225"/>
    <path d="M90 520 L108 780 L166 780 L178 520Z" fill="#031225"/>
    <path d="M254 520 L236 780 L178 780 L166 520Z" fill="#031225"/>
    <circle cx="70" cy="650" r="67" fill="#0b1f3a" stroke="#3b82f6" stroke-opacity=".32" stroke-width="3"/>
    <path d="M36 647 L64 616 L100 628 L108 668 L76 694 L38 674Z" fill="none" stroke="#93c5fd" stroke-opacity=".38" stroke-width="4"/>
  </g>
  <rect width="1920" height="1080" fill="url(#shade)" opacity=".26"/>
</svg>